<?xml version="1.0" encoding="iso-8859-1"?>
<!-- Generator: Adobe Illustrator 19.0.0, SVG Export Plug-In . SVG Version: 6.00 Build 0)  -->
<svg version="1.1" id="Layer_1" xmlns="http://www.w3.org/2000/svg" xmlns:xlink="http://www.w3.org/1999/xlink" x="0px" y="0px"
	 viewBox="0 0 512 512" style="enable-background:new 0 0 512 512;" xml:space="preserve">
<g>
	<g>
		<path d="M470.282,103.518V77.562H301.046c-16.81,0-32.837,6.366-45.046,17.348c-12.208-10.982-28.236-17.348-45.046-17.348H41.718
			v25.956H0v330.919h210.954c16.81,0,32.837-6.366,45.046-17.349c12.209,10.983,28.236,17.349,45.046,17.349H512V103.518H470.282z
			 M210.954,404.021H30.417V133.935h11.301v248.592h169.236c9.819,0,19.153,3.97,25.986,10.746
			C230.106,400.05,220.772,404.021,210.954,404.021z M240.791,359.134c-9.147-4.54-19.34-7.023-29.837-7.023H72.135V133.935V107.98
			h138.819c11.829,0,22.941,5.774,29.837,15.264V359.134z M271.209,123.244c6.897-9.49,18.008-15.263,29.837-15.263h138.819v25.956
			v218.175H301.046c-10.497,0-20.69,2.483-29.837,7.023V123.244z M481.583,404.021H301.046c-9.819,0-19.153-3.97-25.986-10.747
			c6.834-6.776,16.168-10.746,25.986-10.746h169.236V133.935h11.301V404.021z"/>
	</g>
</g>
<g>
	<g>
		<rect x="101.451" y="138.794" width="110.029" height="30.417"/>
	</g>
</g>
<g>
	<g>
		<rect x="300.522" y="138.794" width="110.029" height="30.417"/>
	</g>
</g>
<g>
	<g>
		<rect x="300.522" y="189.489" width="110.029" height="30.417"/>
	</g>
</g>
<g>
	<g>
		<rect x="300.522" y="240.185" width="110.029" height="30.417"/>
	</g>
</g>
<g>
	<g>
		<rect x="300.522" y="290.88" width="110.029" height="30.417"/>
	</g>
</g>
<g>
	<g>
		<path d="M171.672,211.212v-22.439h-30.417v22.439c-27.537,3.094-49.015,26.514-49.015,54.863
			c-0.001,30.45,24.771,55.221,55.22,55.221h18.006c30.449,0,55.221-24.773,55.221-55.221
			C220.688,237.726,199.209,214.307,171.672,211.212z M165.466,290.88H147.46c-13.677,0-24.803-11.128-24.803-24.804
			c0-13.677,11.126-24.804,24.803-24.804h18.006c13.677,0,24.804,11.128,24.804,24.804
			C190.271,279.752,179.143,290.88,165.466,290.88z"/>
	</g>
</g>
<g>
</g>
<g>
</g>
<g>
</g>
<g>
</g>
<g>
</g>
<g>
</g>
<g>
</g>
<g>
</g>
<g>
</g>
<g>
</g>
<g>
</g>
<g>
</g>
<g>
</g>
<g>
</g>
<g>
</g>
</svg>
