<?xml version="1.0" encoding="iso-8859-1"?>
<!-- Generator: Adobe Illustrator 19.0.0, SVG Export Plug-In . SVG Version: 6.00 Build 0)  -->
<svg version="1.1" id="Layer_1" xmlns="http://www.w3.org/2000/svg" xmlns:xlink="http://www.w3.org/1999/xlink" x="0px" y="0px"
	 viewBox="0 0 330.975 330.975" style="enable-background:new 0 0 330.975 330.975;" xml:space="preserve">
<path id="XMLID_808_" d="M330.478,115.365c0.003-0.106,0.008-0.212,0.008-0.318c0-0.016,0.001-0.031,0.001-0.047
	c0-0.096-0.013-0.189-0.015-0.285c-0.007-0.387-0.021-0.775-0.059-1.164c-0.024-0.248-0.068-0.491-0.104-0.735
	c-0.035-0.238-0.061-0.475-0.109-0.713c-0.077-0.392-0.178-0.776-0.285-1.157c-0.024-0.085-0.037-0.17-0.063-0.255l-0.02-0.067
	c-0.014-0.046-0.027-0.092-0.042-0.138L299.854,10.69C297.951,4.345,292.111,0,285.487,0h-79.94c-0.013,0-0.026,0-0.039,0H45.487
	C38.863,0,33.023,4.345,31.12,10.69L1.182,110.485c-0.015,0.046-0.027,0.092-0.041,0.138l-0.02,0.067
	c-0.025,0.084-0.039,0.17-0.063,0.255c-0.107,0.381-0.208,0.765-0.285,1.157c-0.047,0.238-0.074,0.475-0.109,0.713
	c-0.036,0.245-0.08,0.487-0.104,0.735c-0.038,0.39-0.051,0.777-0.059,1.164C0.5,114.811,0.487,114.904,0.487,115
	c0,0.016,0.001,0.031,0.001,0.047c0,0.106,0.006,0.212,0.008,0.318c0.127,22.808,12.063,42.859,29.991,54.364v146.246
	c0,8.284,6.716,15,15,15h80h80h80c8.284,0,15-6.716,15-15V169.729C318.414,158.224,330.351,138.173,330.478,115.365z M265.487,150
	c-13.934,0-25.988-8.186-31.616-20h63.232C291.476,141.814,279.421,150,265.487,150z M33.871,130h63.232
	c-5.628,11.814-17.683,20-31.616,20C51.554,150,39.499,141.814,33.871,130z M191.912,30l7,70h-66.85l7-70H191.912z M197.103,130
	c-5.628,11.814-17.683,20-31.616,20c-13.934,0-25.988-8.186-31.616-20H197.103z M295.327,100h-66.265l-7-70h52.264L295.327,100z
	 M56.648,30h52.264l-7,70H35.647L56.648,30z M60.487,250.975h50v50h-50V250.975z M140.487,300.975v-50h50v50H140.487z
	 M220.487,300.975v-50h50v50H220.487z M270.487,220.975h-65h-80h-65v-41.186c1.652,0.126,3.316,0.211,5,0.211
	c20.085,0,38.067-9.16,50-23.518c11.933,14.358,29.915,23.518,50,23.518s38.067-9.16,50-23.518
	c11.933,14.358,29.915,23.518,50,23.518c1.684,0,3.348-0.085,5-0.211V220.975z"/>
<g>
</g>
<g>
</g>
<g>
</g>
<g>
</g>
<g>
</g>
<g>
</g>
<g>
</g>
<g>
</g>
<g>
</g>
<g>
</g>
<g>
</g>
<g>
</g>
<g>
</g>
<g>
</g>
<g>
</g>
</svg>
